<svg version="1.2" baseProfile="tiny" xmlns="http://www.w3.org/2000/svg" width="1024" height="1024" viewBox="0 0 1024 1024">
  <path fill="#FFF" d="M173.586 5.384h526.643c39.944 0 77.61 15.669 106.063 44.122s44.122 66.121 44.122 106.065l-.001 570.9a150.417 150.417 0 0 1-1.503 21.118l-.056.379v59.391c0 82.748-67.32 150.122-150.073 150.186l-525.195.004V5.384z"/>
  <path fill="#333" d="M700.229 0H187.741l-19.538.001v962.931l530.583-.003c85.516-.067 155.453-70.048 155.453-155.569v-59.008a155.38 155.38 0 0 0 1.558-21.88v-570.9h.001C855.799 70.007 785.791 0 700.229 0zM359.981 214.136c27.96 0 73.548 9.438 76.438 96.375 16.676 23.224 41.995 44.719 71.982 59.995 52.632 8.89 112.15 10.542 174.068 4.845-6.608 18.053-69.13 62.03-68.001 62.827 28.553 20.367 98.908 34.788 98.908 34.788s-48.37 21.024-93.107 22.404c.113.109.282.16.282.273-152.836 2.477-214.76-52.947-220.14-86.686-3.072-18.112 8.546-31.567 30.754-35.117 15.797-2.586 10.58-25.596-3.935-23.116-34.883 6.134-55.043 30.985-49.876 61.921 8.228 51.077 85.09 113.496 260.341 105.898 39.78 12.938 67.083 12.222 92.136 10.35-30.753 35.829-56.773 50.251-80.262 57.845 4.368 35.83 5.862 77.502 4.368 92.665-32.253-47.31-105.812-121.006-138.158-138.041-1.51 45.38 13.333 105.896 30.962 126.646-42.576-9.521-61.879-22.705-79.454-45.438-11.5 13.709-44.347 46.293-79.34 35.916 22.032-39.603 35.31-83.166 33.754-137.984-36.656-7.515-98.37-41.613-96.982-168.261.756-51.108-36.436-65.857-55.468-86.717 29.348-16.934 62.988-51.387 90.73-51.388zm305.244 704.457H212.542v-36.549h487.689c34.907 0 67.229-11.657 93.257-31.268-28.106 40.874-75.187 67.817-128.263 67.817z"/>
  <path fill="#1A1A1A" d="M370.27 900.186v116.653c0 3.552-2.21 6.791-5.682 8.132-1.103.473-2.288.633-3.472.633a9.596 9.596 0 0 1-6.551-2.527l-34.806-33.467-34.802 33.467c-1.818 1.655-4.105 2.604-6.551 2.604a8.876 8.876 0 0 1-3.476-.707c-3.469-1.341-5.681-4.578-5.681-8.132V900.186H370.27z"/>
</svg>